<?xml version="1.0" encoding="UTF-8" standalone="no"?>
<svg width="260px" height="196px" viewBox="0 0 260 196" version="1.1" xmlns="http://www.w3.org/2000/svg" xmlns:xlink="http://www.w3.org/1999/xlink" xmlns:sketch="http://www.bohemiancoding.com/sketch/ns">
    <!-- Generator: Sketch 3.4.2 (15855) - http://www.bohemiancoding.com/sketch -->
    <title>Layer_5</title>
    <desc>Created with Sketch.</desc>
    <defs></defs>
    <g id="Page-1" stroke="none" stroke-width="1" fill="none" fill-rule="evenodd" sketch:type="MSPage">
        <g id="atomic-design" sketch:type="MSLayerGroup" transform="translate(-1039.000000, -297.000000)">
            <g id="Layer_5" transform="translate(1044.000000, 302.000000)" sketch:type="MSShapeGroup">
                <g id="Group">
                    <circle id="Oval" stroke="#FFFFFF" stroke-width="11" cx="30" cy="30.1" r="29.3"></circle>
                    <circle id="Oval" fill="#ABABAB" cx="30" cy="30.1" r="16.9"></circle>
                    <circle id="Oval" stroke="#FFFFFF" stroke-width="11" cx="92.9" cy="30.1" r="29.3"></circle>
                    <circle id="Oval" fill="#ABABAB" cx="92.9" cy="30.1" r="16.9"></circle>
                    <circle id="Oval" stroke="#FFFFFF" stroke-width="11" cx="155.9" cy="30.1" r="29.3"></circle>
                    <circle id="Oval" fill="#ABABAB" cx="155.9" cy="30.1" r="16.9"></circle>
                    <circle id="Oval" stroke="#FFFFFF" stroke-width="11" cx="219.6" cy="30.1" r="29.3"></circle>
                    <circle id="Oval" fill="#ABABAB" cx="219.6" cy="30.1" r="16.9"></circle>
                    <circle id="Oval" stroke="#FFFFFF" stroke-width="11" cx="30" cy="93.1" r="29.3"></circle>
                    <circle id="Oval" fill="#ABABAB" cx="30" cy="93.1" r="16.9"></circle>
                    <circle id="Oval" stroke="#FFFFFF" stroke-width="11" cx="92.9" cy="93.1" r="29.3"></circle>
                    <circle id="Oval" fill="#ABABAB" cx="92.9" cy="93.1" r="16.9"></circle>
                    <circle id="Oval" stroke="#FFFFFF" stroke-width="11" cx="155.9" cy="93.1" r="29.3"></circle>
                    <circle id="Oval" fill="#ABABAB" cx="155.9" cy="93.1" r="16.9"></circle>
                    <circle id="Oval" stroke="#FFFFFF" stroke-width="11" cx="219.6" cy="93.1" r="29.3"></circle>
                    <circle id="Oval" fill="#ABABAB" cx="219.6" cy="93.1" r="16.9"></circle>
                    <circle id="Oval" stroke="#FFFFFF" stroke-width="11" cx="30" cy="156" r="29.3"></circle>
                    <circle id="Oval" fill="#ABABAB" cx="30" cy="156" r="16.9"></circle>
                    <circle id="Oval" stroke="#FFFFFF" stroke-width="11" cx="92.9" cy="156" r="29.3"></circle>
                    <circle id="Oval" fill="#ABABAB" cx="92.9" cy="156" r="16.9"></circle>
                    <circle id="Oval" stroke="#FFFFFF" stroke-width="11" cx="155.9" cy="156" r="29.3"></circle>
                    <circle id="Oval" fill="#ABABAB" cx="155.9" cy="156" r="16.9"></circle>
                    <circle id="Oval" stroke="#FFFFFF" stroke-width="11" cx="219.6" cy="156" r="29.3"></circle>
                    <circle id="Oval" fill="#ABABAB" cx="219.6" cy="156" r="16.9"></circle>
                    <circle id="Oval" fill="#ABABAB" cx="61.1" cy="30.1" r="8.1"></circle>
                    <circle id="Oval" fill="#ABABAB" cx="30" cy="61.7" r="8.1"></circle>
                    <circle id="Oval" fill="#ABABAB" cx="94.4" cy="61.7" r="8.1"></circle>
                    <circle id="Oval" fill="#ABABAB" cx="156.6" cy="61.7" r="8.1"></circle>
                    <circle id="Oval" fill="#ABABAB" cx="219.6" cy="61.7" r="8.1"></circle>
                    <circle id="Oval" fill="#ABABAB" cx="30" cy="124.6" r="8.1"></circle>
                    <circle id="Oval" fill="#ABABAB" cx="94.4" cy="124.6" r="8.1"></circle>
                    <circle id="Oval" fill="#ABABAB" cx="156.6" cy="124.6" r="8.1"></circle>
                    <circle id="Oval" fill="#ABABAB" cx="219.6" cy="124.6" r="8.1"></circle>
                    <circle id="Oval" fill="#ABABAB" cx="124" cy="30.1" r="8.1"></circle>
                    <circle id="Oval" fill="#ABABAB" cx="187.8" cy="30.1" r="8.1"></circle>
                    <circle id="Oval" fill="#ABABAB" cx="61.1" cy="91.6" r="8.1"></circle>
                    <circle id="Oval" fill="#ABABAB" cx="124" cy="91.6" r="8.1"></circle>
                    <circle id="Oval" fill="#ABABAB" cx="187.8" cy="91.6" r="8.1"></circle>
                    <circle id="Oval" fill="#ABABAB" cx="61.1" cy="154.5" r="8.1"></circle>
                    <circle id="Oval" fill="#ABABAB" cx="124" cy="154.5" r="8.1"></circle>
                    <circle id="Oval" fill="#ABABAB" cx="187.8" cy="154.5" r="8.1"></circle>
                </g>
            </g>
        </g>
    </g>
</svg>