<?xml version="1.0" encoding="UTF-8" standalone="no"?>
<svg width="205px" height="255px" viewBox="0 0 205 255" version="1.1" xmlns="http://www.w3.org/2000/svg" xmlns:xlink="http://www.w3.org/1999/xlink" xmlns:sketch="http://www.bohemiancoding.com/sketch/ns">
    <!-- Generator: Sketch 3.4.2 (15855) - http://www.bohemiancoding.com/sketch -->
    <title>template</title>
    <desc>Created with Sketch.</desc>
    <defs></defs>
    <g id="Page-1" stroke="none" stroke-width="1" fill="none" fill-rule="evenodd" sketch:type="MSPage">
        <g id="atomic-design" sketch:type="MSLayerGroup" transform="translate(-1391.000000, -268.000000)" stroke-width="9" stroke="#FFFFFF">
            <g id="template" transform="translate(1396.000000, 272.000000)" sketch:type="MSShapeGroup">
                <g id="Group">
                    <g transform="translate(32.000000, 0.000000)" id="Shape">
                        <path d="M163.1,6.9 L163.1,0.9 L157.1,0.9"></path>
                        <path d="M145.5,0.9 L12.5,0.9" stroke-dasharray="11.5716,11.5716"></path>
                        <path d="M6.8,0.9 L0.8,0.9 L0.8,6.9"></path>
                        <path d="M0.8,13.3 L0.8,22.8" stroke-dasharray="6.3774,6.3774"></path>
                        <path d="M0.8,26 L0.8,32 L6.8,32"></path>
                        <path d="M19.8,32 L118.1,32" stroke-dasharray="13.105,13.105"></path>
                        <path d="M124.6,32 L130.6,32 L130.6,38"></path>
                        <path d="M130.6,49.4 L130.6,203.1" stroke-dasharray="11.3823,11.3823"></path>
                        <path d="M130.6,208.8 L130.6,214.8 L136.6,214.8"></path>
                        <path d="M143.5,214.8 L153.8,214.8" stroke-dasharray="6.8286,6.8286"></path>
                        <path d="M158.1,214.8 L163.1,214.8 L163.1,209.8"></path>
                        <path d="M163.1,196.9 L163.1,12.8" stroke-dasharray="11.8745,11.8745"></path>
                    </g>
                    <g transform="translate(0.000000, 32.000000)" id="Shape">
                        <path d="M32.8,4.3 L32.8,0 L26.8,0"></path>
                        <path d="M19.9,0 L9.6,0" stroke-dasharray="6.8288,6.8288"></path>
                        <path d="M6.2,0 L0.2,0 L0.2,6"></path>
                        <path d="M0.2,17.9 L0.2,202" stroke-dasharray="11.8746,11.8746"></path>
                        <path d="M0.2,207.9 L0.2,213.9 L6.2,213.9"></path>
                        <path d="M17.8,213.9 L150.8,213.9" stroke-dasharray="11.5716,11.5716"></path>
                        <path d="M156.6,213.9 L162.6,213.9 L162.6,207.9"></path>
                        <path d="M162.6,201.5 L162.6,192" stroke-dasharray="6.3776,6.3776"></path>
                        <path d="M162.6,188.8 L162.6,182.8 L159.2,182.8"></path>
                    </g>
                </g>
            </g>
        </g>
    </g>
</svg>